<svg xmlns="http://www.w3.org/2000/svg" width="32" height="28" viewBox="0 0 32 28"><defs><style>.a{fill:none;stroke:#020202;stroke-linecap:round;stroke-linejoin:round;stroke-miterlimit:10;stroke-width:2px;}</style></defs><g transform="translate(1 1)"><path class="a" d="M4,13H4A10.029,10.029,0,0,1,14,3h4A10.029,10.029,0,0,1,28,13" transform="translate(-1 -3)"/><path class="a" d="M28,24h0a4.951,4.951,0,0,1-5,5H9a4.951,4.951,0,0,1-5-5H4" transform="translate(-1 -3)"/><path class="a" d="M17,17H3a2.006,2.006,0,0,1-2-2H1a2.006,2.006,0,0,1,2-2H29a2.006,2.006,0,0,1,2,2h0a2.006,2.006,0,0,1-2,2H25l-4,3Z" transform="translate(-1 -3)"/><path class="a" d="M27.5,17A3.543,3.543,0,0,1,31,20.5h0A3.543,3.543,0,0,1,27.5,24H4.5A3.543,3.543,0,0,1,1,20.5H1A3.543,3.543,0,0,1,4.5,17" transform="translate(-1 -3)"/><line class="a" x1="1" y1="1" transform="translate(9 6)"/><line class="a" y1="1" x2="1" transform="translate(14 4)"/><line class="a" y1="1" transform="translate(21 5)"/></g></svg>