<svg xmlns="http://www.w3.org/2000/svg" width="483" height="123" viewBox="0 0 483 123"><defs><style>.a{fill:#fff;stroke:#004b9d;}.b{fill:#1a377a;}.c{opacity:0.81;}.d{fill:#0e4ecc;}.e{fill:#3e86f9;}</style></defs><g transform="translate(0.5 0.5)"><g transform="translate(482) rotate(90)"><rect class="a" width="122" height="482" rx="4"/></g><g transform="translate(14 7)"><path class="b" d="M484.571,482.731c.883,0,1.595-.223,1.595-.5s-.711-.5-1.595-.5H35.687V462.714H484.571c.883,0,1.595-.222,1.595-.5s-.711-.5-1.595-.5H35.687v-7.428c0-.275-.714-.5-1.595-.5s-1.595.222-1.595.5V562.8H484.571c.883,0,1.595-.221,1.595-.5s-.711-.5-1.595-.5H35.687V542.779H484.571c.883,0,1.595-.221,1.595-.5s-.711-.5-1.595-.5H35.687V522.763H484.571c.883,0,1.595-.223,1.595-.5s-.711-.5-1.595-.5H35.687V502.747H484.571c.883,0,1.595-.223,1.595-.5s-.711-.5-1.595-.5H35.687V482.731Z" transform="translate(-32.497 -453.796)"/><g class="c" transform="translate(7.339 16.294)"><rect class="b" width="7.263" height="92.205"/><rect class="b" width="7.263" height="92.205" transform="translate(381.856)"/><rect class="d" width="7.263" height="72.518" transform="translate(7.263 19.688)"/><rect class="d" width="7.263" height="72.517" transform="translate(374.593 19.687)"/><rect class="e" width="7.263" height="54.18" transform="translate(14.526 38.025)"/><rect class="e" width="7.263" height="54.18" transform="translate(348.589 38.025)"/><rect class="b" width="7.263" height="52.12" transform="translate(126.797 40.085)"/><rect class="d" width="7.263" height="89.158" transform="translate(152.645 3.047)"/><rect class="d" width="7.263" height="89.158" transform="translate(45.947 3.047)"/><rect class="e" width="7.263" height="66.304" transform="translate(178.494 25.901)"/><rect class="e" width="7.263" height="66.304" transform="translate(84.88 25.901)"/><rect class="b" width="7.263" height="64.146" transform="translate(254.317 28.059)"/><rect class="d" width="7.263" height="26.06" transform="translate(280.166 66.145)"/><rect class="e" width="7.263" height="84.23" transform="translate(306.015 7.975)"/><rect class="b" width="7.263" height="92.205" transform="translate(418.62)"/><rect class="d" width="7.263" height="72.518" transform="translate(425.883 19.688)"/><rect class="e" width="7.263" height="54.18" transform="translate(433.146 38.025)"/></g></g></g></svg>