<svg xmlns="http://www.w3.org/2000/svg" width="46.646" height="43.512" viewBox="0 0 46.646 43.512"><defs><style>.a{fill:none;stroke:#020202;stroke-linecap:round;stroke-linejoin:round;stroke-miterlimit:10;stroke-width:2.5px;}</style></defs><g transform="translate(1.25 1.25)"><path class="a" d="M37.008,30l4.366-2.5a3.055,3.055,0,0,1,4.158,1.119l.036.062a3.135,3.135,0,0,1-.7,4l-8.119,6.7a3.967,3.967,0,0,1-1.675.817L19.67,43.62a4,4,0,0,1-3.087-.577L7.009,36.672A4,4,0,0,0,4.79,36H2V24l7.1-.789a7.993,7.993,0,0,1,3.693.461l5.466,2.049a7.939,7.939,0,0,0,1.528.406l10.226,1.659A3.223,3.223,0,0,1,33.007,31h0a3.223,3.223,0,0,1-2.992,3.214L19,35" transform="translate(-2 -2.715)"/><circle class="a" cx="9" cy="9" r="9" transform="translate(18.007)"/><rect class="a" width="5.657" height="5.657" transform="translate(23.007 9) rotate(-45)"/></g></svg>